<svg width="519" height="300" viewBox="0 0 519 300" fill="none" xmlns="http://www.w3.org/2000/svg">
<path d="M0 0V23.82H22.38V81.84H53.52V23.82H75.9V0H0ZM100.98 0L69.36 81.84H100.92L118.08 32.28L135.36 81.78H166.86L135.36 0H100.98ZM160.38 0V23.82H182.7V81.84H213.84V23.82H236.22V0H160.38ZM261.3 0L229.62 81.84H261.24L278.46 32.34L295.68 81.84H327.24L295.68 0H261.3ZM0 204.66C0 149.34 29.88 122.76 82.08 122.76C113.76 122.76 134.52 133.98 145.26 147.96C147.36 150.72 148.14 153.06 148.14 155.64C148.14 162.42 141.84 168 133.98 168C130.32 168 126.66 166.62 123.24 163.32C112.5 152.82 101.22 147 82.08 147C47.22 147 31.44 166.14 31.44 204.66C31.44 245.52 47.16 262.08 82.08 262.08C101.46 262.08 111.96 258.12 124.56 246.66C128.76 242.94 132.18 241.56 135.84 241.56C143.7 241.56 150 247.14 150 254.16C150 256.74 149.04 259.2 147.36 261.18C134.76 276.12 110.16 286.38 82.08 286.38C29.88 286.38 0 261.84 0 204.66ZM246 260.4C253.02 260.16 258.84 265.68 259.08 272.7C259.08 272.94 259.08 273.12 259.08 273.36C259.08 280.86 253.68 286.38 246 286.38H176.94C169.2 286.38 163.62 280.62 163.62 272.94V136.68C163.62 129 169.68 122.76 177.18 122.76C184.68 122.76 190.68 129 190.68 136.68V260.4H246ZM313.62 271.92C313.62 279.9 307.5 286.38 300 286.38C292.5 286.38 286.38 279.9 286.38 271.92V178.08C286.38 170.1 292.5 163.62 300 163.62C307.56 163.62 313.62 170.1 313.62 178.08V271.92ZM504 300C500.22 300 496.68 298.5 494.04 295.86L475.02 276.78L469.5 280.14C468.36 280.86 467.22 281.52 466.02 282.12L465.54 282.36C457.14 286.68 448.08 289.68 438.72 291.18C434.52 291.84 430.2 292.2 425.94 292.2C418.8 292.2 411.72 291.3 404.82 289.62C394.2 286.8 384.24 282.06 375.36 275.58C366.48 269.16 358.98 261 353.28 251.64C351.78 249.24 350.4 246.78 349.14 244.2C345.78 237.12 343.38 229.56 342.12 221.82L342 221.04L341.82 220.14L341.64 218.76C341.16 215.04 340.86 211.32 340.86 207.54C340.86 200.52 341.76 193.56 343.5 186.78C346.32 176.16 351.18 166.2 357.78 157.38C364.38 148.56 372.6 141.06 382.08 135.36C385.74 133.08 389.64 131.04 393.72 129.36C400.14 126.72 406.86 124.8 413.76 123.72C425.16 121.98 436.8 122.64 447.96 125.64L448.2 125.7C449.1 125.94 449.94 126.18 450.72 126.42L451.02 126.48C468.72 132.12 484.08 143.34 494.76 158.46C496.08 160.32 497.16 162 498.06 163.62C502.44 170.82 505.68 178.56 507.72 186.6C508.56 189.84 509.22 193.26 509.64 196.92C510.84 207.36 510.18 217.92 507.78 228.18C505.74 236.34 502.5 244.14 498.18 251.34L494.88 256.8L513.96 275.94C519.54 281.52 519.54 290.34 513.96 295.92C511.32 298.5 507.72 300 504 300ZM426.66 145.92C423.54 145.92 420.48 146.16 417.36 146.64C409.08 147.9 401.16 150.78 394.02 155.04L393.84 155.16C386.76 159.72 381.06 165 376.38 171.3C371.52 177.66 367.98 184.98 366.06 192.72C363.9 200.46 363.42 208.62 364.74 216.54C366 224.94 368.76 232.32 373.08 239.22C377.16 245.94 382.74 251.94 389.16 256.56C406.56 269.58 429.54 272.46 449.64 264.12C459.96 259.8 468.84 252.72 475.38 243.6C480 237.48 483.36 230.28 485.34 222.3C487.26 214.2 487.68 206.1 486.54 198.18C483.9 181.8 475.44 167.52 462.66 157.92C452.28 150.12 439.68 145.92 426.66 145.92Z" fill="black"/>
<path d="M322.319 134.759C328.919 141.359 328.919 152.099 322.319 158.699C315.719 165.299 304.979 165.299 298.379 158.699L277.679 137.939C271.259 131.159 271.559 120.479 278.339 114.059C284.879 107.879 295.079 107.879 301.619 114.059L322.319 134.759Z" fill="#FF1744"/>
</svg>
